<svg width="600" height="90" xmlns="http://www.w3.org/2000/svg">
 <!-- Created with Method Draw - http://github.com/duopixel/Method-Draw/ -->

 <g>
  <title>background</title>
  <rect x="-1" y="-1" width="602" height="92" id="canvas_background" fill="#fff"/>
  <g id="canvasGrid" display="none">
   <rect id="svg_2" width="100%" height="100%" x="0" y="0" stroke-width="0" fill="url(#gridpattern)"/>
  </g>
 </g>
 <g>
  <title>Layer 1</title>
  <rect fill="#000" stroke="#fff" stroke-width="1.5" x="0.750056" y="0.75" width="584.999944" height="89" id="svg_1" opacity="0.9"/>
  <text fill="#4b4bea" stroke="#fff" stroke-width="0" stroke-opacity="null" x="156.717792" y="37.75" id="svg_4" font-size="24" font-family="Helvetica, Arial, sans-serif" text-anchor="start" xml:space="preserve" transform="matrix(0.903736, 0, 0, 1, 41.1185, 0)">Szlach©  managing sytem</text>
  <path fill="#80db25" stroke="#ff5656" stroke-width="0" d="m37.587494,61.25l0,0c0,-11.874111 9.849762,-21.5 22,-21.5l0,0c5.834686,0 11.430511,2.265202 15.556366,6.297192c4.125854,4.032059 6.443665,9.500648 6.443665,15.202808l0,0c0,11.87413 -9.849792,21.5 -22.000031,21.5l0,0c-12.150238,0 -22,-9.62587 -22,-21.5zm11,0l0,0c0,5.937057 4.924805,10.750023 11,10.750023c6.075226,0 11,-4.812965 11,-10.750023c0,-5.93705 -4.924774,-10.75 -11,-10.75l0,0c-6.075195,0 -11,4.81295 -11,10.75z" id="svg_6"/>
  <path fill="#ff5656" stroke="#ff5656" stroke-width="0" d="m19.587494,33.25l0,0c0,-11.874109 9.849762,-21.5 22,-21.5l0,0c5.834686,0 11.430511,2.2652 15.556366,6.29719c4.125854,4.03207 6.443665,9.50066 6.443665,15.20281l0,0c0,11.87413 -9.849792,21.5 -22.000031,21.5l0,0c-12.150238,0 -22,-9.62587 -22,-21.5zm11,0l0,0c0,5.937061 4.924805,10.750019 11,10.750019c6.075226,0 11,-4.812958 11,-10.750019c0,-5.93705 -4.924774,-10.75 -11,-10.75l0,0c-6.075195,0 -11,4.81295 -11,10.75z" id="svg_5"/>
  <path fill="#ff5656" stroke="#ff5656" stroke-width="0" d="m40.659821,15.68733c-9.388763,0 -16.999985,7.61097 -16.999985,17.000002c0,9.389069 7.611221,16.999996 16.999985,16.999996c9.388855,0 17,-7.610928 17,-16.999996c0,-9.389032 -7.611145,-17.000002 -17,-17.000002zm9.808746,15.79282c-1.696899,1.952322 -4.334839,2.597971 -6.6492,1.85528l-8.407623,9.668339c-0.895966,1.029411 -2.455414,1.134682 -3.484802,0.239853s-1.137787,-2.455181 -0.243164,-3.48431l8.41925,-9.679111c-1.044556,-2.181419 -0.768341,-4.87064 0.920471,-6.81225c1.599121,-1.842119 4.039001,-2.51589 6.255615,-1.95792l-3.221497,3.75699l1.053925,3.06554l3.184052,0.618898l3.229492,-3.76635c0.874542,2.12166 0.553314,4.64579 -1.056519,6.495041z" id="svg_8"/>
  <path fill="#ffffff" stroke="#ff5656" stroke-width="0" d="m53.587494,33.25l0,0c0,-11.874109 9.849762,-21.5 22,-21.5l0,0c5.834686,0 11.430511,2.2652 15.556366,6.29719c4.125854,4.03207 6.443665,9.50066 6.443665,15.20281l0,0c0,11.87413 -9.849792,21.5 -22.000031,21.5l0,0c-12.150238,0 -22,-9.62587 -22,-21.5zm11,0l0,0c0,5.937061 4.924805,10.750019 11,10.750019c6.075226,0 11,-4.812958 11,-10.750019c0,-5.93705 -4.924774,-10.75 -11,-10.75l0,0c-6.075195,0 -11,4.81295 -11,10.75z" id="svg_7"/>
  <path fill="#000" stroke="#fff" stroke-width="1.5" stroke-opacity="null" fill-opacity="null" opacity="0.5" d="m0.75,13.75" id="svg_9"/>
  <path id="svg_3" d="m92.860779,27.846846l-7.92865,2.023853c-0.726593,-1.781542 -1.819489,-3.325804 -3.144012,-4.554926l4.193329,-6.829895c0.3685,-0.602631 0.141174,-1.370991 -0.516846,-1.713741c-0.651794,-0.340237 -1.483276,-0.128071 -1.850586,0.47332l-3.977295,6.480865c-0.822144,-0.480867 -1.687866,-0.865047 -2.58551,-1.124928c-0.565796,-1.804142 -2.247253,-3.026993 -4.160156,-3.216576c-0.001038,-0.005028 -0.003113,-0.010044 -0.00415,-0.015072c-0.083008,-0.303823 -0.126617,-0.577518 -0.132874,-0.816071c-0.007263,-0.23728 0.015625,-0.440678 0.062195,-0.601374c0.050903,-0.163214 0.108032,-0.295053 0.170349,-0.397993c0.198181,-0.326439 0.46283,-0.539864 0.784607,-0.639046c0.031097,0.352791 0.193115,0.605145 0.479492,0.754543c0.210815,0.110483 0.456757,0.144382 0.742249,0.107985c0.287415,-0.038929 0.511627,-0.19084 0.674683,-0.455751c0.143127,-0.233524 0.17334,-0.488392 0.087189,-0.762087c-0.087189,-0.274952 -0.276123,-0.487135 -0.562653,-0.636532c-0.209656,-0.109227 -0.427582,-0.164469 -0.655945,-0.161955c-0.227356,0.001243 -0.445313,0.042685 -0.654907,0.121769c-0.207703,0.079099 -0.40271,0.200882 -0.583344,0.362852c-0.179565,0.161953 -0.328033,0.340237 -0.449432,0.534834c-0.179565,0.293781 -0.293823,0.622732 -0.339508,0.983055c-0.044617,0.359066 -0.05072,0.709345 -0.01236,1.054609c0.022766,0.200882 0.083038,0.377909 0.127686,0.563719c-0.509705,-0.026373 -1.030731,0.002514 -1.55069,0.135597c-0.656097,0.166983 -1.242401,0.451979 -1.741547,0.819828c-0.070648,-0.215937 -0.132843,-0.431892 -0.245026,-0.650345c-0.157684,-0.312611 -0.357056,-0.610161 -0.595825,-0.898928c-0.24176,-0.287506 -0.522064,-0.514746 -0.840698,-0.681728c-0.209625,-0.107969 -0.436951,-0.189585 -0.680786,-0.243568c-0.245026,-0.053986 -0.479645,-0.065285 -0.70282,-0.033899s-0.43277,0.100441 -0.630035,0.205894c-0.198181,0.105471 -0.352905,0.257383 -0.473267,0.448223c-0.161865,0.264893 -0.203369,0.537346 -0.127625,0.812298c0.078827,0.277468 0.245911,0.482107 0.499268,0.615191c0.285339,0.149395 0.564606,0.173252 0.83136,0.070313c0.266724,-0.102955 0.458801,-0.249853 0.578125,-0.445707c0.161865,-0.263651 0.160828,-0.556175 -0.009369,-0.872568c0.332214,-0.069042 0.67572,-0.010044 1.029633,0.177023c0.110107,0.056499 0.232544,0.144382 0.367462,0.261139c0.131805,0.115511 0.262604,0.278725 0.389191,0.487133c0.127655,0.208412 0.24295,0.462021 0.341583,0.763348c0.017548,0.055241 0.031097,0.123039 0.04776,0.183296c-1.23941,1.039553 -1.846558,2.621483 -1.49469,4.214699c-0.790894,0.7332 -1.458282,1.594471 -1.981537,2.554932l-7.020447,-3.67358c-0.652954,-0.34024 -1.485352,-0.128056 -1.854889,0.473333c-0.369415,0.605145 -0.139099,1.373503 0.513855,1.716255l7.402496,3.869436c-0.45047,1.682354 -0.527252,3.524162 -0.15979,5.394848l-7.928864,2.025112c-0.725555,0.18457 -1.149994,0.877594 -0.9487,1.545509c0.199341,0.665421 0.947662,1.05838 1.674286,0.871315l7.998322,-2.042694c0.683929,1.327065 1.853729,2.862541 3.224823,4.32267l-4.344788,7.079742c-0.369537,0.603889 -0.141174,1.370991 0.514771,1.711239c0.324921,0.171993 0.696564,0.203384 1.030701,0.118011c0.337402,-0.085369 0.638397,-0.28751 0.822113,-0.591343l3.937714,-6.414307c3.67334,3.256737 7.732758,5.176399 7.86145,1.322033c2.173431,3.214062 4.694519,-0.424366 6.12381,-4.991863l7.078583,3.699959c0.326996,0.173256 0.699677,0.203384 1.036926,0.118015c0.33429,-0.084114 0.635254,-0.287514 0.820038,-0.591339c0.370605,-0.601391 0.142242,-1.369751 -0.512817,-1.709984l-7.755341,-4.053989c0.395447,-1.889526 0.573975,-3.745136 0.433838,-5.19524l8.00766,-2.042679c0.720367,-0.184565 1.1521,-0.875088 0.946625,-1.543001c-0.201416,-0.667933 -0.952881,-1.059637 -1.676392,-0.875088z" stroke-width="1.5" stroke="#000" fill="#fff"/>
  <path id="svg_11" d="m-477.135895,-88.500488l-0.203308,0.008064c-0.018524,-0.007095 -0.046631,-0.013245 -0.080475,-0.018143l0.1073,-0.027199c0.009583,-0.002403 0.003815,-0.005463 -0.013214,-0.006828c-0.016602,-0.00135 -0.037903,-0.000504 -0.047485,0.001892l-0.101959,0.025803c-0.021088,-0.001915 -0.043213,-0.003441 -0.066223,-0.004478c-0.014465,-0.007179 -0.057709,-0.012054 -0.106659,-0.01281c0,-0.000015 0,-0.000038 0,-0.000061c-0.002136,-0.001205 -0.003418,-0.002296 -0.003632,-0.00325c0,-0.000938 0.000427,-0.001755 0.001709,-0.002396c0.001282,-0.000648 0.002777,-0.001175 0.004272,-0.001579c0.005096,-0.001305 0.011902,-0.002151 0.020203,-0.002548c0.000854,0.001404 0.004913,0.002411 0.01236,0.003006c0.00531,0.000443 0.011719,0.000572 0.018951,0.000427c0.007446,-0.000153 0.013184,-0.000755 0.017242,-0.001808c0.003845,-0.000931 0.004486,-0.001945 0.00235,-0.003036c-0.00235,-0.001099 -0.007019,-0.001945 -0.014496,-0.002541c-0.00531,-0.000435 -0.010834,-0.000648 -0.016815,-0.000641c-0.005737,0.000008 -0.011292,0.000168 -0.016815,0.000481c-0.00531,0.00032 -0.010223,0.000801 -0.014893,0.00145c-0.0047,0.000641 -0.008301,0.00135 -0.011505,0.002129c-0.004669,0.001167 -0.007446,0.00248 -0.008728,0.003914c-0.001068,0.001434 -0.001282,0.002823 -0.000214,0.004204c0.000427,0.000801 0.001923,0.001503 0.003204,0.002243c-0.013214,-0.000107 -0.026398,0.000008 -0.039825,0.000542c-0.016815,0.000664 -0.031708,0.001801 -0.044708,0.003265c-0.001709,-0.000862 -0.003418,-0.001724 -0.006165,-0.002594c-0.004059,-0.001244 -0.009155,-0.002426 -0.01535,-0.003578c-0.006165,-0.001144 -0.013397,-0.002052 -0.021484,-0.002716c-0.005341,-0.000427 -0.011292,-0.000755 -0.017456,-0.000969c-0.006409,-0.000214 -0.01236,-0.000259 -0.018097,-0.000137s-0.011078,0.000404 -0.016174,0.000824c-0.005127,0.00042 -0.008942,0.001022 -0.012146,0.001785c-0.004059,0.001053 -0.005127,0.002136 -0.003204,0.003235c0.002136,0.001106 0.006409,0.001915 0.012787,0.002449c0.007446,0.000595 0.014465,0.000687 0.021271,0.000282c0.006836,-0.000412 0.011719,-0.000999 0.014923,-0.001778c0.004028,-0.001053 0.004028,-0.002213 -0.000214,-0.003479c0.008514,-0.000275 0.017242,-0.000038 0.026398,0.00071c0.002777,0.000221 0.005951,0.000572 0.009369,0.001038c0.003387,0.000458 0.006805,0.001114 0.01001,0.001938c0.003174,0.000832 0.006165,0.001846 0.008728,0.003044c0.000427,0.000221 0.000854,0.000488 0.001282,0.000732c-0.031952,0.004135 -0.047485,0.010437 -0.03833,0.016785c-0.020447,0.002914 -0.037476,0.006348 -0.050873,0.01017l-0.179901,-0.014626c-0.016846,-0.001358 -0.038116,-0.000511 -0.047699,0.001884c-0.009369,0.002411 -0.003632,0.00547 0.013184,0.006836l0.189911,0.015404c-0.011688,0.006706 -0.013611,0.014038 -0.004242,0.021492l-0.203125,0.008064c-0.018738,0.000732 -0.029572,0.003494 -0.024475,0.006149c0.005096,0.002655 0.024261,0.004219 0.042999,0.003471l0.205017,-0.008133c0.0177,0.005287 0.047485,0.011398 0.082825,0.017212l-0.111542,0.028198c-0.009369,0.002403 -0.003632,0.005463 0.013184,0.006813c0.008301,0.000687 0.017883,0.000809 0.026398,0.000473c0.008728,-0.000343 0.016388,-0.001144 0.021088,-0.002357l0.101135,-0.025543c0.094086,0.01297 0.198212,0.020615 0.201385,0.005264c0.055786,0.012802 0.120514,-0.001694 0.157135,-0.019882l0.181396,0.01474c0.008514,0.000687 0.018097,0.000809 0.026611,0.000465c0.008728,-0.000336 0.016388,-0.001144 0.021057,-0.00235c0.009583,-0.002396 0.003632,-0.005455 -0.013184,-0.006813l-0.198853,-0.016144c0.010223,-0.00753 0.014679,-0.014915 0.011078,-0.020691l0.205444,-0.008133c0.018524,-0.00074 0.029602,-0.003487 0.024261,-0.006149c-0.005096,-0.002655 -0.024475,-0.004219 -0.042999,-0.003487z" fill-opacity="null" stroke-width="null" stroke="#ffffff" fill="none"/>
 </g>
</svg>